<?xml version="1.0" standalone="no"?>
<!DOCTYPE svg PUBLIC "-//W3C//DTD SVG 20010904//EN"
 "http://www.w3.org/TR/2001/REC-SVG-20010904/DTD/svg10.dtd">
<svg version="1.0" xmlns="http://www.w3.org/2000/svg"
 width="300.000000pt" height="300.000000pt" viewBox="0 0 300.000000 300.000000"
 preserveAspectRatio="xMidYMid meet">
<metadata>
Created by potrace 1.11, written by Peter Selinger 2001-2013
</metadata>
<g transform="translate(0.000000,300.000000) scale(0.100000,-0.100000)"
fill="#000000" stroke="none">
<path d="M78 2979 c-23 -12 -46 -35 -58 -59 -20 -39 -20 -56 -20 -1422 l0
-1383 23 -39 c12 -21 38 -47 57 -57 33 -18 90 -19 1420 -19 1330 0 1387 1
1420 19 19 10 45 36 57 57 l23 39 0 1383 c0 1366 0 1383 -20 1422 -13 26 -34
47 -60 60 -39 20 -55 20 -1422 20 -1357 -1 -1384 -1 -1420 -21z m1492 -438 c0
-19 59 -22 111 -7 61 19 147 21 203 5 21 -6 57 -27 79 -48 34 -32 40 -45 44
-88 6 -59 -6 -87 -50 -113 -28 -17 -77 -27 -77 -16 0 2 7 20 15 39 19 46 19
120 0 156 -20 39 -86 65 -144 56 -48 -7 -94 -25 -88 -34 2 -3 10 -21 17 -38 8
-18 18 -33 22 -33 4 0 8 -16 8 -35 0 -19 -3 -35 -7 -35 -5 0 -15 -13 -24 -29
-16 -28 -83 -60 -96 -47 -4 3 -1 23 5 45 15 48 16 115 2 106 -18 -11 -58 -99
-74 -161 -22 -85 -33 -169 -46 -334 -23 -292 -74 -435 -201 -557 -105 -102
-230 -139 -436 -128 -93 5 -133 3 -133 -4 0 -7 -36 -11 -105 -11 -58 0 -105 4
-105 9 0 5 -16 12 -36 16 -105 19 -223 156 -224 258 0 20 -4 37 -10 37 -5 0
-10 11 -10 25 0 14 4 25 9 25 5 0 12 12 16 28 18 73 102 107 152 60 27 -25 29
-45 7 -76 -13 -18 -24 -23 -52 -20 -30 2 -38 -1 -49 -22 -16 -32 -17 -101 -1
-137 25 -58 68 -100 135 -133 57 -29 82 -35 155 -38 48 -2 99 -1 113 2 25 7
25 7 -22 43 -62 48 -79 68 -108 128 -66 140 -26 295 76 295 47 0 79 -28 79
-68 0 -42 -31 -66 -74 -58 -33 6 -36 5 -43 -21 -13 -46 -8 -136 9 -169 22 -41
73 -89 115 -109 33 -16 35 -16 84 15 89 58 159 156 192 270 28 95 47 229 47
325 0 159 53 362 121 460 37 54 96 109 144 134 46 25 55 26 55 8 0 -8 -17 -25
-37 -38 -98 -64 -148 -215 -173 -534 -20 -241 -39 -326 -96 -436 -45 -87 -138
-185 -204 -216 l-45 -21 50 -8 c63 -9 160 7 222 37 63 30 141 110 180 184 52
99 72 191 88 400 8 107 24 227 35 275 27 109 79 215 137 275 41 44 44 49 29
64 -11 10 -41 18 -88 21 -44 3 -73 10 -76 18 -3 9 19 12 87 12 50 0 91 -4 91
-9z m632 -663 c5 -14 49 -14 168 -3 96 9 150 -5 202 -54 35 -32 41 -45 45 -88
6 -59 -6 -87 -50 -113 -28 -17 -77 -27 -77 -16 0 2 7 20 15 39 19 46 19 120 0
156 -20 39 -85 64 -145 56 -68 -9 -74 -15 -53 -56 10 -19 21 -35 26 -37 4 -2
7 -19 7 -38 0 -19 -3 -34 -7 -34 -5 0 -15 -13 -24 -29 -16 -28 -83 -60 -96
-47 -4 3 -1 23 5 45 16 53 16 124 0 119 -18 -6 -65 -92 -83 -153 -24 -76 -43
-205 -55 -365 -23 -292 -74 -435 -201 -557 -113 -110 -304 -157 -484 -121 -45
9 -60 9 -63 0 -4 -14 -212 -17 -212 -3 0 5 -16 12 -36 16 -105 19 -223 156
-224 258 0 20 -4 37 -10 37 -5 0 -10 11 -10 25 0 14 4 25 9 25 5 0 12 12 16
28 18 73 102 107 152 60 27 -25 29 -45 7 -76 -13 -18 -24 -23 -52 -20 -30 2
-38 -1 -49 -22 -16 -32 -17 -101 -1 -137 25 -58 68 -100 135 -134 61 -30 78
-33 168 -37 l100 -3 -25 21 c-105 88 -143 150 -155 251 -13 109 32 189 106
189 47 0 79 -28 79 -68 0 -42 -31 -66 -74 -58 -33 6 -36 5 -43 -21 -13 -46 -8
-136 9 -168 22 -41 65 -83 109 -105 36 -19 37 -19 80 3 57 28 147 119 180 182
52 98 89 280 89 430 0 159 53 362 121 460 37 54 96 109 144 134 46 25 55 26
55 8 0 -8 -17 -25 -37 -38 -98 -64 -148 -215 -173 -534 -20 -241 -39 -326 -96
-436 -46 -89 -138 -185 -209 -218 -43 -20 -47 -25 -30 -32 33 -13 107 -10 170
6 110 29 192 98 253 213 51 95 71 189 87 397 23 301 71 449 181 559 49 48 52
55 37 67 -9 8 -48 16 -86 19 -44 3 -72 10 -75 18 -3 9 19 12 86 12 62 0 92 -4
94 -12z"/>
</g>
</svg>
