<?xml version="1.0" standalone="no"?>
<!DOCTYPE svg PUBLIC "-//W3C//DTD SVG 20010904//EN"
 "http://www.w3.org/TR/2001/REC-SVG-20010904/DTD/svg10.dtd">
<svg version="1.0" xmlns="http://www.w3.org/2000/svg"
 width="300.000000pt" height="300.000000pt" viewBox="0 0 300.000000 300.000000"
 preserveAspectRatio="xMidYMid meet">
<metadata>
Created by potrace 1.11, written by Peter Selinger 2001-2013
</metadata>
<g transform="translate(0.000000,300.000000) scale(0.100000,-0.100000)"
fill="#000000" stroke="none">
<path d="M78 2979 c-23 -12 -46 -35 -58 -59 -20 -39 -20 -56 -20 -1422 l0
-1383 23 -39 c12 -21 38 -47 57 -57 33 -18 90 -19 1420 -19 1330 0 1387 1
1420 19 19 10 45 36 57 57 l23 39 0 1383 c0 1366 0 1383 -20 1422 -13 26 -34
47 -60 60 -39 20 -55 20 -1422 20 -1357 -1 -1384 -1 -1420 -21z m1840 -424
c93 -28 142 -89 142 -177 0 -58 -30 -105 -83 -128 -36 -17 -117 -28 -117 -16
0 2 9 24 21 50 23 54 27 151 7 192 -22 46 -63 69 -121 68 -29 0 -67 -8 -85
-17 l-32 -18 22 -32 c13 -18 26 -33 31 -35 4 -2 7 -26 7 -52 0 -39 -5 -54 -27
-78 -32 -33 -85 -57 -108 -48 -14 5 -14 9 0 35 8 17 15 52 15 78 -1 46 -1 47
-15 23 -33 -61 -58 -212 -90 -544 -17 -177 -44 -273 -101 -368 -68 -111 -211
-211 -340 -238 -30 -7 -105 -10 -165 -8 -60 1 -109 0 -109 -4 0 -10 -317 -10
-322 0 -1 4 -21 16 -43 26 -80 39 -175 153 -175 210 0 9 -4 16 -10 16 -6 0
-10 28 -10 65 0 37 4 65 10 65 6 0 10 6 10 14 0 8 12 29 26 46 24 28 31 31 77
28 40 -2 54 -8 69 -29 19 -25 19 -28 4 -58 -14 -27 -22 -31 -56 -31 -48 0 -60
-18 -60 -92 0 -133 130 -227 314 -228 l80 0 -45 29 c-109 70 -163 161 -163
276 0 91 28 145 91 176 76 37 153 1 153 -72 0 -46 -24 -76 -75 -93 -35 -12
-41 -19 -47 -53 -16 -85 10 -157 74 -203 52 -38 84 -38 139 2 94 68 148 144
183 261 33 107 35 125 47 307 21 326 109 529 265 610 27 14 51 28 52 33 5 11
230 9 234 -3 2 -5 28 -1 63 10 74 23 192 26 263 5z m610 -670 c92 -28 142 -89
142 -175 0 -82 -55 -136 -149 -147 -28 -3 -51 -3 -51 -1 0 3 10 27 21 53 29
65 30 166 2 203 -42 57 -129 76 -193 42 -20 -11 -20 -11 2 -43 13 -18 26 -33
31 -35 4 -2 7 -26 7 -53 0 -27 -3 -49 -7 -49 -5 0 -15 -13 -24 -28 -15 -27
-92 -63 -106 -49 -3 4 -1 24 6 44 7 21 11 61 9 88 l-3 50 -22 -41 c-40 -75
-69 -232 -93 -514 -16 -179 -35 -263 -82 -360 -71 -147 -210 -257 -365 -289
-66 -14 -563 -15 -563 -1 0 6 -7 10 -15 10 -8 0 -30 8 -49 18 -65 35 -118 90
-152 158 -29 59 -34 78 -34 141 0 54 4 78 17 94 44 54 53 59 100 59 53 -1 78
-14 92 -52 9 -24 3 -42 -26 -77 -2 -3 -22 -7 -45 -10 -40 -6 -43 -8 -51 -46
-10 -48 5 -116 35 -157 42 -60 155 -108 254 -108 l57 0 -39 29 c-103 76 -148
155 -148 266 -1 137 84 220 189 185 41 -13 55 -35 55 -83 0 -44 -25 -74 -75
-91 -38 -13 -40 -17 -48 -64 -18 -111 56 -222 148 -222 63 0 180 102 230 200
54 106 81 247 89 455 8 225 65 393 171 500 28 27 68 59 90 70 22 11 42 23 43
28 2 4 60 7 128 7 84 0 123 -3 119 -10 -7 -11 14 -8 75 11 44 13 175 10 228
-6z"/>
<path d="M1360 2493 c-75 -53 -101 -88 -135 -185 -22 -64 -53 -258 -60 -383
-9 -158 -44 -347 -67 -361 -4 -3 -8 -11 -8 -19 0 -23 -72 -136 -115 -181 -22
-22 -60 -53 -84 -67 l-43 -25 28 -6 c81 -17 214 34 284 110 98 106 139 242
165 541 8 98 24 215 35 260 25 105 78 210 135 270 25 25 45 50 45 55 0 4 -27
8 -59 8 -33 0 -65 2 -73 4 -7 2 -29 -7 -48 -21z"/>
<path d="M1967 1814 c-98 -74 -145 -217 -167 -514 -13 -176 -27 -258 -57 -350
-49 -147 -132 -256 -242 -318 l-55 -31 29 -7 c43 -11 163 13 211 41 154 90
219 251 249 615 24 287 72 430 180 536 30 29 51 55 48 58 -4 3 -38 6 -77 6
-66 -1 -75 -3 -119 -36z"/>
</g>
</svg>
